<svg width="24" height="24" viewBox="0 0 24 24" fill="none" xmlns="http://www.w3.org/2000/svg">
<path d="M17.3335 8.66675H6.66683C5.93045 8.66675 5.3335 9.2637 5.3335 10.0001V16.6667C5.3335 17.4031 5.93045 18.0001 6.66683 18.0001H17.3335C18.0699 18.0001 18.6668 17.4031 18.6668 16.6667V10.0001C18.6668 9.2637 18.0699 8.66675 17.3335 8.66675Z" stroke="#F36B25" stroke-width="1.33333" stroke-linecap="round" stroke-linejoin="round"/>
<path d="M14.6668 18V7.33333C14.6668 6.97971 14.5264 6.64057 14.2763 6.39052C14.0263 6.14048 13.6871 6 13.3335 6H10.6668C10.3132 6 9.97407 6.14048 9.72402 6.39052C9.47397 6.64057 9.3335 6.97971 9.3335 7.33333V18" stroke="#F36B25" stroke-width="1.33333" stroke-linecap="round" stroke-linejoin="round"/>
</svg>
