<svg width="24" height="24" viewBox="0 0 24 24" fill="none" xmlns="http://www.w3.org/2000/svg">
<path d="M16.25 8C16.25 8.41421 16.5858 8.75 17 8.75C17.4142 8.75 17.75 8.41421 17.75 8H16.25ZM16 4V3.25V4ZM6 4V3.25V4ZM4 6H3.25H4ZM6 8V8.75V8ZM18 8V8.75V8ZM18.25 12C18.25 12.4142 18.5858 12.75 19 12.75C19.4142 12.75 19.75 12.4142 19.75 12H18.25ZM19.75 16C19.75 15.5858 19.4142 15.25 19 15.25C18.5858 15.25 18.25 15.5858 18.25 16H19.75ZM4 18H3.25H4ZM20 12H20.75C20.75 11.5858 20.4142 11.25 20 11.25V12ZM20 16V16.75C20.4142 16.75 20.75 16.4142 20.75 16H20ZM16 12V12.75V12ZM17.75 8V5H16.25V8H17.75ZM17.75 5C17.75 4.53587 17.5656 4.09075 17.2374 3.76256L16.1768 4.82322C16.2237 4.87011 16.25 4.93369 16.25 5H17.75ZM17.2374 3.76256C16.9092 3.43437 16.4641 3.25 16 3.25V4.75C16.0663 4.75 16.1299 4.77634 16.1768 4.82322L17.2374 3.76256ZM16 3.25H6V4.75H16V3.25ZM6 3.25C5.27065 3.25 4.57118 3.53973 4.05546 4.05546L5.11612 5.11612C5.35054 4.8817 5.66848 4.75 6 4.75V3.25ZM4.05546 4.05546C3.53973 4.57118 3.25 5.27065 3.25 6H4.75C4.75 5.66848 4.8817 5.35054 5.11612 5.11612L4.05546 4.05546ZM3.25 6C3.25 6.72935 3.53973 7.42882 4.05546 7.94454L5.11612 6.88388C4.8817 6.64946 4.75 6.33152 4.75 6H3.25ZM4.05546 7.94454C4.57118 8.46027 5.27065 8.75 6 8.75V7.25C5.66848 7.25 5.35054 7.1183 5.11612 6.88388L4.05546 7.94454ZM6 8.75H18V7.25H6V8.75ZM18 8.75C18.0663 8.75 18.1299 8.77634 18.1768 8.82322L19.2374 7.76256C18.9092 7.43437 18.4641 7.25 18 7.25V8.75ZM18.1768 8.82322C18.2237 8.87011 18.25 8.93369 18.25 9H19.75C19.75 8.53587 19.5656 8.09075 19.2374 7.76256L18.1768 8.82322ZM18.25 9V12H19.75V9H18.25ZM18.25 16V19H19.75V16H18.25ZM18.25 19C18.25 19.0663 18.2237 19.1299 18.1768 19.1768L19.2374 20.2374C19.5656 19.9092 19.75 19.4641 19.75 19H18.25ZM18.1768 19.1768C18.1299 19.2237 18.0663 19.25 18 19.25V20.75C18.4641 20.75 18.9092 20.5656 19.2374 20.2374L18.1768 19.1768ZM18 19.25H6V20.75H18V19.25ZM6 19.25C5.66848 19.25 5.35054 19.1183 5.11612 18.8839L4.05546 19.9445C4.57118 20.4603 5.27065 20.75 6 20.75V19.25ZM5.11612 18.8839C4.8817 18.6495 4.75 18.3315 4.75 18H3.25C3.25 18.7293 3.53973 19.4288 4.05546 19.9445L5.11612 18.8839ZM4.75 18V6H3.25V18H4.75ZM19.25 12V16H20.75V12H19.25ZM20 15.25H16V16.75H20V15.25ZM16 15.25C15.6685 15.25 15.3505 15.1183 15.1161 14.8839L14.0555 15.9445C14.5712 16.4603 15.2707 16.75 16 16.75V15.25ZM15.1161 14.8839C14.8817 14.6495 14.75 14.3315 14.75 14H13.25C13.25 14.7293 13.5397 15.4288 14.0555 15.9445L15.1161 14.8839ZM14.75 14C14.75 13.6685 14.8817 13.3505 15.1161 13.1161L14.0555 12.0555C13.5397 12.5712 13.25 13.2707 13.25 14H14.75ZM15.1161 13.1161C15.3505 12.8817 15.6685 12.75 16 12.75V11.25C15.2707 11.25 14.5712 11.5397 14.0555 12.0555L15.1161 13.1161ZM16 12.75H20V11.25H16V12.75Z" fill="#1A1A1A"/>
</svg>
